# xmcd
#
# Track frame offsets:
#	150
#	17428
#	38012
#	60539
#	81905
#	103553
#	126874
#	143366
#	166430
#	181488
#	199630
#
# Disc length: 3020 seconds
#
# Revision: 0
# Processed by: cddbd v1.5.2PL0 Copyright (c) Steve Scherf et al.
# Submitted via: EasyCDDAExtractor 10.0.2.1
#
DISCID=850bca0b
DTITLE=Kenny Lattimore Chante Moore  - Covered 
DYEAR=2006
DGENRE=Soul
TTITLE0=To Me Your Everything
TTITLE1=Rejoice (Clap Your Hands)
TTITLE2=Make Me Like The Moon
TTITLE3=Your Name
TTITLE4=I Give You My Praise
TTITLE5=I Do Love You
TTITLE6=Mine All Mine
TTITLE7=No Limit
TTITLE8=Never Alone
TTITLE9=I Just Love To Praise You
TTITLE10=No Limit (Remix)
EXTD=
EXTT0=
EXTT1=
EXTT2=
EXTT3=
EXTT4=
EXTT5=
EXTT6=
EXTT7=
EXTT8=
EXTT9=
EXTT10=
PLAYORDER=
